<?xml version="1.0" encoding="UTF-8" standalone="no"?>
<!-- Created with Inkscape (http://www.inkscape.org/) -->

<svg
   xmlns:dc="http://purl.org/dc/elements/1.1/"
   xmlns:cc="http://creativecommons.org/ns#"
   xmlns:rdf="http://www.w3.org/1999/02/22-rdf-syntax-ns#"
   xmlns:svg="http://www.w3.org/2000/svg"
   xmlns="http://www.w3.org/2000/svg"
   xmlns:xlink="http://www.w3.org/1999/xlink"
   xmlns:sodipodi="http://sodipodi.sourceforge.net/DTD/sodipodi-0.dtd"
   xmlns:inkscape="http://www.inkscape.org/namespaces/inkscape"
   width="700"
   height="100"
   viewBox="0 0 185.20834 26.458333"
   version="1.1"
   id="svg8"
   inkscape:version="0.92.3 (2405546, 2018-03-11)"
   sodipodi:docname="Logo_1TintaAzul.svg">
  <defs
     id="defs2">
    <linearGradient
       inkscape:collect="always"
       id="linearGradient846">
      <stop
         style="stop-color:#e44652;stop-opacity:1;"
         offset="0"
         id="stop842" />
      <stop
         style="stop-color:#e44652;stop-opacity:0;"
         offset="1"
         id="stop844" />
    </linearGradient>
    <linearGradient
       inkscape:collect="always"
       xlink:href="#linearGradient846"
       id="linearGradient848"
       x1="14.551099"
       y1="211.02893"
       x2="45.851681"
       y2="211.02893"
       gradientUnits="userSpaceOnUse" />
  </defs>
  <sodipodi:namedview
     id="base"
     pagecolor="#ffffff"
     bordercolor="#666666"
     borderopacity="1.0"
     inkscape:pageopacity="0.0"
     inkscape:pageshadow="2"
     inkscape:zoom="0.85422619"
     inkscape:cx="540.77346"
     inkscape:cy="134.62476"
     inkscape:document-units="mm"
     inkscape:current-layer="layer1"
     showgrid="true"
     showborder="true"
     inkscape:object-nodes="true"
     inkscape:object-paths="true"
     inkscape:snap-intersection-paths="true"
     inkscape:snap-smooth-nodes="true"
     inkscape:window-width="1366"
     inkscape:window-height="713"
     inkscape:window-x="0"
     inkscape:window-y="0"
     inkscape:window-maximized="1"
     units="px">
    <inkscape:grid
       type="xygrid"
       id="grid3713" />
  </sodipodi:namedview>
  <metadata
     id="metadata5">
    <rdf:RDF>
      <cc:Work
         rdf:about="">
        <dc:format>image/svg+xml</dc:format>
        <dc:type
           rdf:resource="http://purl.org/dc/dcmitype/StillImage" />
        <dc:title></dc:title>
      </cc:Work>
    </rdf:RDF>
  </metadata>
  <g
     inkscape:label="Capa 1"
     inkscape:groupmode="layer"
     id="layer1"
     transform="translate(0,-270.54168)">
    <path
       style="fill:#043353;fill-opacity:1;stroke:none;stroke-width:0.11243809;stroke-miterlimit:4;stroke-dasharray:none;stroke-opacity:1"
       d="m 23.149367,272.30445 a 5.5126883,5.7332837 0 0 0 -5.512691,5.7333 5.5126883,5.7332837 0 0 0 -5.51269,5.7333 5.5126883,5.7332837 0 0 0 5.51269,5.73325 5.5126883,5.7332837 0 0 0 3.307614,-1.15561 5.5126887,5.7332842 0 0 0 4.41015,2.3023 5.5126887,5.7332842 0 0 0 3.307613,-1.15562 5.5126887,5.7332842 0 0 1 0,0.009 5.5126887,5.7332842 0 0 1 -0.02792,0.57111 5.5126887,5.7332842 0 0 1 -0.08185,0.56661 5.5126887,5.7332842 0 0 1 -0.13568,0.55542 5.5126887,5.7332842 0 0 1 -0.189476,0.53973 5.5126887,5.7332842 0 0 1 -0.239024,0.51512 5.5126887,5.7332842 0 0 1 -0.288569,0.48821 5.5126887,5.7332842 0 0 1 -0.333783,0.45687 5.5126887,5.7332842 0 0 1 -0.374703,0.41864 5.5126887,5.7332842 0 0 1 -0.415582,0.37835 5.5126887,5.7332842 0 0 1 -0.447905,0.3337 5.5126887,5.7332842 0 0 1 -0.223939,0.13218 5.5126887,5.7332842 0 0 0 2.758497,0.7771 5.5126887,5.7332842 0 0 0 5.51269,-5.7333 5.5126883,5.7332837 0 0 0 5.512691,-5.73325 5.5126883,5.7332837 0 0 0 -5.512691,-5.7333 5.5126883,5.7332837 0 0 0 -0.458673,0.0217 5.5126883,5.7332837 0 0 0 -5.054017,-3.46238 5.5126883,5.7332837 0 0 0 -1.035779,0.10531 5.5126883,5.7332837 0 0 0 -4.476907,-2.3986 z"
       id="path3715"
       inkscape:connector-curvature="0" />
    <text
       xml:space="preserve"
       style="font-style:normal;font-variant:normal;font-weight:bold;font-stretch:normal;font-size:21.97313499px;line-height:1.25;font-family:Comfortaa;-inkscape-font-specification:'Comfortaa, Bold';font-variant-ligatures:normal;font-variant-caps:normal;font-variant-numeric:normal;font-feature-settings:normal;text-align:center;letter-spacing:0px;word-spacing:0px;writing-mode:lr-tb;text-anchor:middle;fill:#043353;fill-opacity:1;stroke:none;stroke-width:0.54932648"
       x="112.85716"
       y="284.51355"
       id="text824"
       transform="scale(0.98057317,1.0198117)"><tspan
         sodipodi:role="line"
         id="tspan822"
         x="112.85716"
         y="284.51355"
         style="font-style:normal;font-variant:normal;font-weight:bold;font-stretch:normal;font-size:21.97313499px;font-family:Comfortaa;-inkscape-font-specification:'Comfortaa, Bold';font-variant-ligatures:normal;font-variant-caps:normal;font-variant-numeric:normal;font-feature-settings:normal;text-align:center;writing-mode:lr-tb;text-anchor:middle;fill:#043353;fill-opacity:1;stroke-width:0.54932648">AlieStorage</tspan></text>
  </g>
</svg>
