<?xml version="1.0" encoding="UTF-8" standalone="no"?>
<!-- Created with Inkscape (http://www.inkscape.org/) -->

<svg
   xmlns:dc="http://purl.org/dc/elements/1.1/"
   xmlns:cc="http://creativecommons.org/ns#"
   xmlns:rdf="http://www.w3.org/1999/02/22-rdf-syntax-ns#"
   xmlns:svg="http://www.w3.org/2000/svg"
   xmlns="http://www.w3.org/2000/svg"
   xmlns:xlink="http://www.w3.org/1999/xlink"
   xmlns:sodipodi="http://sodipodi.sourceforge.net/DTD/sodipodi-0.dtd"
   xmlns:inkscape="http://www.inkscape.org/namespaces/inkscape"
   width="700"
   height="100"
   viewBox="0 0 185.20834 26.458334"
   version="1.1"
   id="svg8"
   inkscape:version="0.92.3 (2405546, 2018-03-11)"
   sodipodi:docname="Logo.svg">
  <defs
     id="defs2">
    <linearGradient
       inkscape:collect="always"
       id="linearGradient846">
      <stop
         style="stop-color:#e44652;stop-opacity:1;"
         offset="0"
         id="stop842" />
      <stop
         style="stop-color:#e44652;stop-opacity:0;"
         offset="1"
         id="stop844" />
    </linearGradient>
    <linearGradient
       inkscape:collect="always"
       xlink:href="#linearGradient846"
       id="linearGradient848"
       x1="14.551099"
       y1="211.02893"
       x2="45.851681"
       y2="211.02893"
       gradientUnits="userSpaceOnUse" />
  </defs>
  <sodipodi:namedview
     id="base"
     pagecolor="#ffffff"
     bordercolor="#666666"
     borderopacity="1.0"
     inkscape:pageopacity="0.0"
     inkscape:pageshadow="2"
     inkscape:zoom="0.68488343"
     inkscape:cx="283.82107"
     inkscape:cy="325.62372"
     inkscape:document-units="mm"
     inkscape:current-layer="layer1"
     showgrid="true"
     showborder="true"
     inkscape:object-nodes="true"
     inkscape:object-paths="true"
     inkscape:snap-intersection-paths="true"
     inkscape:snap-smooth-nodes="true"
     inkscape:window-width="1366"
     inkscape:window-height="713"
     inkscape:window-x="0"
     inkscape:window-y="0"
     inkscape:window-maximized="1"
     units="px">
    <inkscape:grid
       type="xygrid"
       id="grid3713" />
  </sodipodi:namedview>
  <metadata
     id="metadata5">
    <rdf:RDF>
      <cc:Work
         rdf:about="">
        <dc:format>image/svg+xml</dc:format>
        <dc:type
           rdf:resource="http://purl.org/dc/dcmitype/StillImage" />
        <dc:title></dc:title>
      </cc:Work>
    </rdf:RDF>
  </metadata>
  <g
     inkscape:label="Capa 1"
     inkscape:groupmode="layer"
     id="layer1"
     transform="translate(0,-270.54161)">
    <path
       style="fill:#043353;fill-opacity:1;stroke:none;stroke-width:0.1102538;stroke-miterlimit:4;stroke-dasharray:none;stroke-opacity:1"
       d="m 21.561864,273.27437 a 5.5126897,5.5126897 0 0 0 -5.512692,5.51271 5.5126897,5.5126897 0 0 0 -5.512693,5.51269 5.5126897,5.5126897 0 0 0 5.512693,5.51267 5.5126897,5.5126897 0 0 0 3.307615,-1.11116 5.5126901,5.5126901 0 0 0 4.410151,2.21372 5.5126901,5.5126901 0 0 0 3.307614,-1.11115 5.5126901,5.5126901 0 0 1 0,0.009 5.5126901,5.5126901 0 0 1 -0.02792,0.54914 5.5126901,5.5126901 0 0 1 -0.08185,0.54481 5.5126901,5.5126901 0 0 1 -0.13568,0.53405 5.5126901,5.5126901 0 0 1 -0.189477,0.51896 5.5126901,5.5126901 0 0 1 -0.239023,0.49531 5.5126901,5.5126901 0 0 1 -0.288569,0.46942 5.5126901,5.5126901 0 0 1 -0.333783,0.43929 5.5126901,5.5126901 0 0 1 -0.374703,0.40254 5.5126901,5.5126901 0 0 1 -0.415583,0.36378 5.5126901,5.5126901 0 0 1 -0.447906,0.32086 5.5126901,5.5126901 0 0 1 -0.223938,0.12711 5.5126901,5.5126901 0 0 0 2.758498,0.74719 5.5126901,5.5126901 0 0 0 5.512691,-5.51271 5.5126897,5.5126897 0 0 0 5.512692,-5.51266 5.5126897,5.5126897 0 0 0 -5.512692,-5.5127 5.5126897,5.5126897 0 0 0 -0.458674,0.0208 5.5126897,5.5126897 0 0 0 -5.054017,-3.32917 5.5126897,5.5126897 0 0 0 -1.03578,0.10126 5.5126897,5.5126897 0 0 0 -4.476908,-2.3063 z"
       id="path3715"
       inkscape:connector-curvature="0" />
    <text
       xml:space="preserve"
       style="font-style:normal;font-variant:normal;font-weight:bold;font-stretch:normal;font-size:21.54627228px;line-height:1.25;font-family:Comfortaa;-inkscape-font-specification:'Comfortaa, Bold';font-variant-ligatures:normal;font-variant-caps:normal;font-variant-numeric:normal;font-feature-settings:normal;text-align:center;letter-spacing:0px;word-spacing:0px;writing-mode:lr-tb;text-anchor:middle;fill:#e44652;fill-opacity:1;stroke:none;stroke-width:0.53865498"
       x="109.07721"
       y="290.4335"
       id="text824"><tspan
         sodipodi:role="line"
         id="tspan822"
         x="109.07721"
         y="290.4335"
         style="font-style:normal;font-variant:normal;font-weight:bold;font-stretch:normal;font-size:21.54627228px;font-family:Comfortaa;-inkscape-font-specification:'Comfortaa, Bold';font-variant-ligatures:normal;font-variant-caps:normal;font-variant-numeric:normal;font-feature-settings:normal;text-align:center;writing-mode:lr-tb;text-anchor:middle;fill:#e44652;fill-opacity:1;stroke-width:0.53865498">AlieStorage</tspan></text>
  </g>
</svg>
